HIERARCHY
ROOT mixamorig:Hips
{
	OFFSET 0.000000 77.714516 0.000000
	CHANNELS 6 Xposition Yposition Zposition Xrotation Yrotation Zrotation
	JOINT mixamorig:Spine
	{
		OFFSET 0.000000 14.685699 -1.734700
		CHANNELS 3 Xrotation Yrotation Zrotation
		JOINT mixamorig:Spine1
		{
			OFFSET 0.000000 17.133286 -2.023825
			CHANNELS 3 Xrotation Yrotation Zrotation
			JOINT mixamorig:Spine2
			{
				OFFSET 0.000000 19.580956 -2.312950
				CHANNELS 3 Xrotation Yrotation Zrotation
				JOINT mixamorig:Neck
				{
					OFFSET 0.000000 22.028564 -2.602067
					CHANNELS 3 Xrotation Yrotation Zrotation
					JOINT mixamorig:Head
					{
						OFFSET 0.000000 7.772293 1.167700
						CHANNELS 3 Xrotation Yrotation Zrotation
						JOINT mixamorig:HeadTop_End
						{
							OFFSET 0.000000 26.518204 3.983900
							CHANNELS 3 Xrotation Yrotation Zrotation
							End Site
							{
								OFFSET 0.000000 26.815781 0.000000
							}
						}
					}
				}
				JOINT mixamorig:LeftShoulder
				{
					OFFSET 11.646600 18.513336 -2.583780
					CHANNELS 3 Xrotation Yrotation Zrotation
					JOINT mixamorig:LeftArm
					{
						OFFSET 23.544209 -6.614426 0.036475
						CHANNELS 3 Xrotation Yrotation Zrotation
						JOINT mixamorig:LeftForeArm
						{
							OFFSET 22.756695 0.000000 -0.000001
							CHANNELS 3 Xrotation Yrotation Zrotation
							JOINT mixamorig:LeftHand
							{
								OFFSET 32.238304 0.000000 -0.000001
								CHANNELS 3 Xrotation Yrotation Zrotation
								JOINT mixamorig:LeftHandThumb1
								{
									OFFSET 4.391930 -2.771759 4.066533
									CHANNELS 3 Xrotation Yrotation Zrotation
									JOINT mixamorig:LeftHandThumb2
									{
										OFFSET 4.087418 -2.359879 2.359871
										CHANNELS 3 Xrotation Yrotation Zrotation
										JOINT mixamorig:LeftHandThumb3
										{
											OFFSET 4.044945 -2.335342 2.335349
											CHANNELS 3 Xrotation Yrotation Zrotation
											JOINT mixamorig:LeftHandThumb4
											{
												OFFSET 3.242561 -1.872101 1.872095
												CHANNELS 3 Xrotation Yrotation Zrotation
												End Site
												{
													OFFSET 2.876892 -1.863678 2.402885
												}
											}
										}
									}
								}
								JOINT mixamorig:LeftHandIndex1
								{
									OFFSET 13.080666 -0.495590 3.860911
									CHANNELS 3 Xrotation Yrotation Zrotation
									JOINT mixamorig:LeftHandIndex2
									{
										OFFSET 4.467804 0.000000 0.000000
										CHANNELS 3 Xrotation Yrotation Zrotation
										JOINT mixamorig:LeftHandIndex3
										{
											OFFSET 4.434097 0.000000 0.000000
											CHANNELS 3 Xrotation Yrotation Zrotation
											JOINT mixamorig:LeftHandIndex4
											{
												OFFSET 3.589699 0.000000 0.000000
												CHANNELS 3 Xrotation Yrotation Zrotation
												End Site
												{
													OFFSET 3.589706 0.000000 0.000200
												}
											}
										}
									}
								}
								JOINT mixamorig:LeftHandMiddle1
								{
									OFFSET 12.178093 0.000000 0.000000
									CHANNELS 3 Xrotation Yrotation Zrotation
									JOINT mixamorig:LeftHandMiddle2
									{
										OFFSET 5.491508 0.000000 0.000000
										CHANNELS 3 Xrotation Yrotation Zrotation
										JOINT mixamorig:LeftHandMiddle3
										{
											OFFSET 5.202805 0.000000 0.000000
											CHANNELS 3 Xrotation Yrotation Zrotation
											JOINT mixamorig:LeftHandMiddle4
											{
												OFFSET 4.456505 0.000000 0.000000
												CHANNELS 3 Xrotation Yrotation Zrotation
												End Site
												{
													OFFSET 4.456505 -0.000046 0.006499
												}
											}
										}
									}
								}
								JOINT mixamorig:LeftHandRing1
								{
									OFFSET 11.850945 -0.053970 -3.835439
									CHANNELS 3 Xrotation Yrotation Zrotation
									JOINT mixamorig:LeftHandRing2
									{
										OFFSET 4.691414 0.000000 0.000000
										CHANNELS 3 Xrotation Yrotation Zrotation
										JOINT mixamorig:LeftHandRing3
										{
											OFFSET 4.518303 0.000000 0.000000
											CHANNELS 3 Xrotation Yrotation Zrotation
											JOINT mixamorig:LeftHandRing4
											{
												OFFSET 3.568130 0.000000 0.000000
												CHANNELS 3 Xrotation Yrotation Zrotation
												End Site
												{
													OFFSET 3.568100 -0.000168 0.014599
												}
											}
										}
									}
								}
								JOINT mixamorig:LeftHandPinky1
								{
									OFFSET 10.491814 -0.458572 -7.033705
									CHANNELS 3 Xrotation Yrotation Zrotation
									JOINT mixamorig:LeftHandPinky2
									{
										OFFSET 4.452301 0.000000 0.000000
										CHANNELS 3 Xrotation Yrotation Zrotation
										JOINT mixamorig:LeftHandPinky3
										{
											OFFSET 3.536598 0.000000 0.000000
											CHANNELS 3 Xrotation Yrotation Zrotation
											JOINT mixamorig:LeftHandPinky4
											{
												OFFSET 2.823502 0.000000 0.000000
												CHANNELS 3 Xrotation Yrotation Zrotation
												End Site
												{
													OFFSET 2.823502 0.000000 0.000600
												}
											}
										}
									}
								}
							}
						}
					}
				}
				JOINT mixamorig:RightShoulder
				{
					OFFSET -11.646600 18.513351 -2.620334
					CHANNELS 3 Xrotation Yrotation Zrotation
					JOINT mixamorig:RightArm
					{
						OFFSET -23.544205 -6.614441 -0.036501
						CHANNELS 3 Xrotation Yrotation Zrotation
						JOINT mixamorig:RightForeArm
						{
							OFFSET -22.759399 0.000000 0.000001
							CHANNELS 3 Xrotation Yrotation Zrotation
							JOINT mixamorig:RightHand
							{
								OFFSET -32.238106 0.000000 0.000001
								CHANNELS 3 Xrotation Yrotation Zrotation
								JOINT mixamorig:RightHandThumb1
								{
									OFFSET -4.492897 -2.767944 4.026622
									CHANNELS 3 Xrotation Yrotation Zrotation
									JOINT mixamorig:RightHandThumb2
									{
										OFFSET -4.113335 -2.374832 2.374833
										CHANNELS 3 Xrotation Yrotation Zrotation
										JOINT mixamorig:RightHandThumb3
										{
											OFFSET -4.066299 -2.347672 2.347678
											CHANNELS 3 Xrotation Yrotation Zrotation
											JOINT mixamorig:RightHandThumb4
											{
												OFFSET -3.138756 -1.812164 1.812160
												CHANNELS 3 Xrotation Yrotation Zrotation
												End Site
												{
													OFFSET -2.613274 -1.789185 2.527684
												}
											}
										}
									}
								}
								JOINT mixamorig:RightHandIndex1
								{
									OFFSET -12.930191 -0.141510 3.700550
									CHANNELS 3 Xrotation Yrotation Zrotation
									JOINT mixamorig:RightHandIndex2
									{
										OFFSET -4.764015 0.000000 0.000000
										CHANNELS 3 Xrotation Yrotation Zrotation
										JOINT mixamorig:RightHandIndex3
										{
											OFFSET -4.419807 0.000000 0.000000
											CHANNELS 3 Xrotation Yrotation Zrotation
											JOINT mixamorig:RightHandIndex4
											{
												OFFSET -3.701851 0.000000 0.000000
												CHANNELS 3 Xrotation Yrotation Zrotation
												End Site
												{
													OFFSET -3.701797 0.000153 -0.018699
												}
											}
										}
									}
								}
								JOINT mixamorig:RightHandMiddle1
								{
									OFFSET -12.168388 0.000000 0.000001
									CHANNELS 3 Xrotation Yrotation Zrotation
									JOINT mixamorig:RightHandMiddle2
									{
										OFFSET -5.385834 0.000000 0.000000
										CHANNELS 3 Xrotation Yrotation Zrotation
										JOINT mixamorig:RightHandMiddle3
										{
											OFFSET -5.321609 0.000000 0.000000
											CHANNELS 3 Xrotation Yrotation Zrotation
											JOINT mixamorig:RightHandMiddle4
											{
												OFFSET -4.501015 0.000000 0.000000
												CHANNELS 3 Xrotation Yrotation Zrotation
												End Site
												{
													OFFSET -4.500992 -0.000168 0.011299
												}
											}
										}
									}
								}
								JOINT mixamorig:RightHandRing1
								{
									OFFSET -11.815239 0.302551 -3.905540
									CHANNELS 3 Xrotation Yrotation Zrotation
									JOINT mixamorig:RightHandRing2
									{
										OFFSET -4.583313 0.000000 0.000000
										CHANNELS 3 Xrotation Yrotation Zrotation
										JOINT mixamorig:RightHandRing3
										{
											OFFSET -4.612907 0.000000 0.000000
											CHANNELS 3 Xrotation Yrotation Zrotation
											JOINT mixamorig:RightHandRing4
											{
												OFFSET -3.358940 0.000000 0.000000
												CHANNELS 3 Xrotation Yrotation Zrotation
												End Site
												{
													OFFSET -3.358910 -0.000198 0.016799
												}
											}
										}
									}
								}
								JOINT mixamorig:RightHandPinky1
								{
									OFFSET -10.511444 -0.263382 -6.996516
									CHANNELS 3 Xrotation Yrotation Zrotation
									JOINT mixamorig:RightHandPinky2
									{
										OFFSET -4.477509 0.000000 0.000000
										CHANNELS 3 Xrotation Yrotation Zrotation
										JOINT mixamorig:RightHandPinky3
										{
											OFFSET -3.497902 0.000000 0.000000
											CHANNELS 3 Xrotation Yrotation Zrotation
											JOINT mixamorig:RightHandPinky4
											{
												OFFSET -2.797302 0.000000 0.000000
												CHANNELS 3 Xrotation Yrotation Zrotation
												End Site
												{
													OFFSET -2.797302 -0.000031 0.002200
												}
											}
										}
									}
								}
							}
						}
					}
				}
			}
		}
	}
	JOINT mixamorig:LeftUpLeg
	{
		OFFSET 13.580900 -8.149200 -1.796100
		CHANNELS 3 Xrotation Yrotation Zrotation
		JOINT mixamorig:LeftLeg
		{
			OFFSET 1.779603 -35.946629 -2.676069
			CHANNELS 3 Xrotation Yrotation Zrotation
			JOINT mixamorig:LeftFoot
			{
				OFFSET -1.779600 -26.652353 -2.057156
				CHANNELS 3 Xrotation Yrotation Zrotation
				JOINT mixamorig:LeftToeBase
				{
					OFFSET -1.192457 -6.581663 13.403625
					CHANNELS 3 Xrotation Yrotation Zrotation
					JOINT mixamorig:LeftToe_End
					{
						OFFSET -0.351332 -0.163919 5.937958
						CHANNELS 3 Xrotation Yrotation Zrotation
						End Site
						{
							OFFSET -0.351332 -0.163919 5.937958
						}
					}
				}
			}
		}
	}
	JOINT mixamorig:RightUpLeg
	{
		OFFSET -13.580900 -8.149200 -2.255300
		CHANNELS 3 Xrotation Yrotation Zrotation
		JOINT mixamorig:RightLeg
		{
			OFFSET -1.779582 -35.946686 -2.316831
			CHANNELS 3 Xrotation Yrotation Zrotation
			JOINT mixamorig:RightFoot
			{
				OFFSET 1.779588 -26.652205 -2.090130
				CHANNELS 3 Xrotation Yrotation Zrotation
				JOINT mixamorig:RightToeBase
				{
					OFFSET 1.192391 -6.582412 13.372187
					CHANNELS 3 Xrotation Yrotation Zrotation
					JOINT mixamorig:RightToe_End
					{
						OFFSET 0.351304 -0.164246 5.913598
						CHANNELS 3 Xrotation Yrotation Zrotation
						End Site
						{
							OFFSET 0.351304 -0.164246 5.913598
						}
					}
				}
			}
		}
	}
}
MOTION
Frames: 5
Frame Time: 0.016667
-0.728412 76.541763 1.656627 -0.178158 -10.158429 -3.137444 3.536678 2.348518 3.076342 -1.311953 0.325493 -1.658850 -1.303342 0.322723 -1.666203 -2.258047 -0.918688 3.600312 0.358960 -1.043664 9.505217 -0.000000 -0.000000 -0.000000 1.625776 -7.529782 9.160900 -16.086421 -76.623159 -15.398918 0.000003 -3.826571 0.000000 -0.101413 -3.252353 16.571837 -1.540036 3.690179 6.142365 3.939053 7.948699 0.746819 -0.579475 1.575005 2.538722 -0.000004 -0.000001 -0.000004 0.065450 0.949011 -7.889468 0.053559 0.858968 -7.136640 0.130652 1.337635 -11.156492 0.000000 0.000000 0.000000 0.154711 1.454287 -12.143942 0.060675 0.913922 -7.595993 0.127019 1.319121 -11.000108 -0.000000 -0.000000 -0.000000 0.332656 2.118265 -17.847913 0.065361 0.948392 -7.884417 0.124927 1.308267 -10.908499 -0.000000 -0.000000 -0.000002 2.150487 6.455446 -22.836060 0.041840 -3.206165 -7.556940 0.129637 1.332515 -11.113219 0.000000 -0.000000 0.000001 2.621161 37.632891 3.204968 8.924163 46.585022 -6.674673 0.000008 13.439497 0.000003 5.194638 -14.341302 -49.338701 -0.756646 -9.466001 -15.176668 4.637184 -8.634112 -0.225407 -1.273765 0.137304 -2.094869 -0.000002 0.000001 0.000003 0.012679 -0.420629 3.453718 0.082669 -1.071241 8.826120 0.071933 -0.999613 8.231498 0.000002 0.000001 0.000002 0.068830 -0.977938 8.051856 0.085569 -1.089701 8.979542 0.073745 -1.012047 8.334759 0.000001 0.000001 0.000000 0.206001 -1.683261 13.953654 0.092032 -1.129760 9.312576 0.072243 -1.001740 8.249152 -0.000001 0.000000 0.000000 0.394642 -2.313374 19.359355 0.081853 -1.065932 8.782008 0.071543 -0.996935 8.209444 -0.000000 0.000000 0.000001 -8.272021 13.479382 14.683124 21.030870 6.114811 -0.783248 -9.394386 15.992106 -10.590513 -0.996329 0.000020 -0.000000 0.000001 0.000005 0.000001 -8.846120 -5.857906 -7.503226 8.120700 -8.454213 -2.748743 4.226452 5.370490 12.008095 -2.357140 0.004485 -0.162228 0.000000 0.000002 -0.000001 
-0.632903 76.536110 1.667020 -1.335537 -11.143501 -3.640972 4.481719 2.343211 3.540688 -1.408807 0.325342 -1.798847 -1.399523 0.320237 -1.807018 -1.538512 -0.726073 3.631337 0.363113 -0.306078 9.593098 -0.000000 0.000000 0.000001 1.610005 -7.371379 9.251647 -17.954655 -76.346680 -17.751703 0.000006 -3.631305 0.000006 -0.092412 -2.885828 16.404147 -1.540032 3.690174 6.142346 3.939045 7.948713 0.746822 -0.579472 1.575007 2.538721 -0.000002 0.000000 -0.000000 0.063014 0.931263 -7.740986 0.052345 0.849208 -7.055294 0.129704 1.332832 -11.115822 0.000000 -0.000001 -0.000001 0.151293 1.438312 -12.008590 0.059443 0.904653 -7.518491 0.126168 1.314721 -10.962873 -0.000000 0.000000 -0.000001 0.328020 2.103811 -17.721996 0.064275 0.940546 -7.818655 0.124219 1.304597 -10.877413 0.000000 -0.000000 -0.000002 2.136544 6.445219 -22.711931 0.041037 -3.212258 -7.505947 0.129039 1.329476 -11.087672 0.000000 -0.000001 -0.000002 2.621114 37.738824 3.213224 7.586247 47.326316 -5.203922 0.000005 13.454460 -0.000001 5.470704 -13.802453 -48.280975 -0.756649 -9.465971 -15.176682 4.637202 -8.634130 -0.225395 -1.273758 0.137305 -2.094871 0.000001 0.000002 -0.000000 0.013130 -0.427913 3.513571 0.082480 -1.069999 8.815764 0.071833 -0.998984 8.226336 -0.000001 0.000000 -0.000001 0.069476 -0.982504 8.089644 0.085370 -1.088424 8.968771 0.073589 -1.010996 8.326147 -0.000001 0.000002 0.000001 0.206386 -1.684812 13.966822 0.091666 -1.127653 9.294924 0.072040 -1.000363 8.237774 0.000001 -0.000001 -0.000000 0.394336 -2.312509 19.351669 0.081399 -1.062959 8.757427 0.071320 -0.995462 8.197133 -0.000001 -0.000002 0.000000 -6.818723 13.252778 14.939418 21.503688 6.230038 -1.099460 -10.075175 16.646957 -10.527049 -1.048883 -0.000018 0.000003 -0.000000 -0.000002 -0.000000 -8.051158 -4.730277 -7.469633 8.593105 -7.233759 -2.146537 4.409133 4.571237 12.054919 -2.399780 0.007784 -0.350706 -0.000000 -0.000000 -0.000000 
-0.572749 76.489685 1.681539 -2.316023 -12.423742 -3.979602 5.122895 2.328130 3.870708 -1.361306 0.323588 -1.907194 -1.351579 0.315816 -1.915481 -1.136888 -0.546205 3.610838 0.576695 0.508779 9.240805 0.000000 0.000000 0.000000 1.463346 -6.716169 9.087946 -19.048863 -76.233258 -19.181659 -0.000002 -3.442714 -0.000003 -0.032489 -2.658801 16.211000 -1.540031 3.690171 6.142367 3.939049 7.948695 0.746808 -0.579476 1.575006 2.538720 -0.000003 0.000000 -0.000000 0.061599 0.920779 -7.653406 0.051545 0.842677 -7.000607 0.129061 1.329576 -11.088470 -0.000000 -0.000000 -0.000001 0.149151 1.428195 -11.922911 0.058613 0.898363 -7.465952 0.125591 1.311734 -10.937769 0.000000 0.000000 0.000000 0.324962 2.094232 -17.638508 0.063515 0.934954 -7.771874 0.123716 1.301965 -10.855292 -0.000000 -0.000000 -0.000002 2.127181 6.438325 -22.628456 0.040414 -3.217016 -7.466447 0.128579 1.327145 -11.067891 0.000000 -0.000000 0.000003 2.618125 37.671977 3.214402 6.687236 48.205252 -4.143101 0.000008 13.327346 -0.000008 5.649655 -13.474244 -47.561189 -0.756649 -9.465977 -15.176667 4.637198 -8.634133 -0.225385 -1.273757 0.137306 -2.094872 0.000000 0.000004 0.000003 0.013829 -0.439301 3.607122 0.083244 -1.074920 8.856754 0.072199 -1.001440 8.246806 0.000000 -0.000002 -0.000001 0.070689 -0.990975 8.159794 0.085926 -1.091987 8.998480 0.073844 -1.012726 8.340488 -0.000000 0.000001 -0.000000 0.207766 -1.690319 14.013441 0.091913 -1.129131 9.307331 0.072135 -1.001002 8.243202 0.000001 -0.000002 -0.000001 0.395569 -2.316019 19.382159 0.081336 -1.062538 8.753908 0.071292 -0.995248 8.195396 0.000001 0.000001 0.000001 -5.535066 13.800087 15.195605 21.759828 6.148231 -1.507657 -10.672884 17.056685 -10.380515 -1.069019 -0.000006 -0.000000 -0.000000 0.000001 0.000000 -7.902767 -4.266803 -7.567377 9.508091 -5.265425 -1.687443 4.351615 3.782647 11.701309 -2.850894 0.004492 -0.160150 -0.000000 -0.000001 -0.000000 
-0.531070 76.419525 1.701401 -3.156779 -13.708256 -4.192122 5.541879 2.297807 4.099705 -1.236600 0.319302 -1.975046 -1.226685 0.309059 -1.983003 -0.889105 -0.381137 3.520074 0.860788 1.268692 8.610556 -0.000000 -0.000000 0.000001 1.281946 -5.888988 8.815341 -19.700998 -76.181601 -20.092345 0.000005 -3.266314 0.000007 0.060184 -2.505166 16.001786 -1.540037 3.690167 6.142344 3.939053 7.948726 0.746813 -0.579473 1.575009 2.538722 -0.000002 -0.000002 -0.000000 0.060894 0.915566 -7.609819 0.051042 0.838572 -6.966231 0.128672 1.327542 -11.071283 0.000000 0.000000 -0.000000 0.148014 1.422802 -11.877346 0.058079 0.894272 -7.431750 0.125206 1.309737 -10.920894 0.000000 0.000000 0.000001 0.323185 2.088615 -17.589940 0.062975 0.931078 -7.739247 0.123354 1.300077 -10.839360 0.000000 0.000001 0.000001 2.121301 6.433983 -22.576002 0.039946 -3.220545 -7.436737 0.128243 1.325385 -11.053027 0.000000 -0.000000 -0.000002 2.607533 37.467986 3.216833 6.075018 49.143395 -3.306535 0.000009 13.132596 -0.000002 5.762416 -13.276617 -47.047586 -0.756643 -9.465975 -15.176670 4.637187 -8.634123 -0.225409 -1.273761 0.137306 -2.094875 -0.000001 -0.000002 0.000003 0.014705 -0.453071 3.720431 0.084743 -1.084465 8.936001 0.072899 -1.006238 8.286455 0.000001 -0.000001 -0.000001 0.072297 -1.002148 8.252611 0.087137 -1.099595 9.061769 0.074404 -1.016567 8.372351 -0.000001 0.000000 0.000001 0.209900 -1.698865 14.085839 0.092710 -1.133948 9.347361 0.072476 -1.003380 8.262915 0.000000 -0.000002 -0.000000 0.397954 -2.322768 19.441106 0.081687 -1.064854 8.773184 0.071468 -0.996404 8.205039 0.000000 0.000002 -0.000000 -4.342905 14.535237 15.316149 21.855545 5.987028 -1.914229 -11.168602 17.508159 -10.201566 -1.086767 -0.000004 0.000000 0.000000 0.000002 -0.000000 -8.164752 -4.365970 -7.753282 10.788551 -3.070422 -1.482062 3.945685 3.072805 11.465407 -3.088177 0.000146 -0.004285 0.000000 0.000002 -0.000000 
-0.508875 76.321655 1.728858 -3.825052 -14.751493 -4.249132 5.737707 2.254229 4.210536 -1.064082 0.312501 -1.981655 -1.054298 0.300424 -1.988948 -0.734774 -0.237798 3.320660 1.150299 1.869859 7.679200 0.000000 0.000001 -0.000001 1.113236 -5.067344 8.429034 -19.864722 -76.157975 -20.446771 0.000003 -3.112479 -0.000010 0.187081 -2.414474 15.777363 -1.540030 3.690162 6.142359 3.939049 7.948709 0.746817 -0.579472 1.575012 2.538723 -0.000001 0.000000 -0.000002 0.061051 0.916704 -7.619309 0.050918 0.837532 -6.957571 0.128567 1.327031 -11.066961 -0.000000 -0.000000 -0.000001 0.148096 1.423181 -11.880329 0.057919 0.893040 -7.421094 0.125061 1.309012 -10.914782 -0.000000 -0.000000 -0.000000 0.322987 2.087989 -17.584392 0.062752 0.929397 -7.725355 0.123185 1.299189 -10.831803 -0.000000 0.000001 0.000003 2.119816 6.432874 -22.562758 0.039690 -3.222499 -7.420551 0.128052 1.324418 -11.044920 0.000000 -0.000000 0.000001 2.587082 37.108718 3.220940 5.809381 50.118706 -2.718940 0.000009 12.884260 -0.000005 5.808697 -13.213026 -46.745685 -0.756651 -9.465962 -15.176672 4.637200 -8.634102 -0.225402 -1.273765 0.137314 -2.094871 -0.000003 0.000000 0.000009 0.015762 -0.469000 3.851507 0.087105 -1.099389 9.059967 0.073984 -1.013706 8.348439 0.000000 -0.000001 -0.000002 0.074331 -1.016048 8.368008 0.089160 -1.112200 9.166570 0.075361 -1.023032 8.425849 -0.000001 0.000001 0.000001 0.212897 -1.710753 14.186543 0.094241 -1.143235 9.424812 0.073172 -1.008113 8.302000 0.000001 -0.000002 -0.000000 0.401688 -2.333329 19.533332 0.082676 -1.071236 8.826114 0.071926 -0.999608 8.231520 0.000000 -0.000000 0.000001 -3.258733 14.875541 15.200359 21.931413 5.859905 -2.336119 -11.616469 18.160672 -9.980012 -1.091828 0.000005 0.000001 -0.000000 -0.000000 0.000000 -8.694474 -4.557492 -8.015995 12.505869 -1.408173 -1.500715 3.033716 2.518201 11.486867 -2.919993 0.000077 -0.001882 -0.000000 0.000002 -0.000000 
